<?xml version="1.0" encoding="UTF-8" standalone="no"?>
<svg
   id="svg6"
   version="1.1"
   viewBox="0 0 16 16"
   class="bi bi-plus-circle"
   fill=""
   height="16"
   width="16"
   xmlns="http://www.w3.org/2000/svg"
   xmlns:svg="http://www.w3.org/2000/svg">
  <defs
     id="defs10" />
  <g
     id="g1758">
    <path
       style="fill:#0099ff;fill-opacity:1;stroke-width:0.0349539"
       d="M 7.5505571,15.994958 C 6.3247459,15.890383 5.3694006,15.630034 4.3899664,15.133651 2.3524401,14.101022 0.84580734,12.244878 0.25760821,10.042669 -0.02718687,8.9763989 -0.08060086,7.611069 0.12115124,6.5546343 0.6539335,3.7648149 2.5637238,1.4979135 5.2245494,0.49695201 7.009671,-0.17458214 9.0718878,-0.16510867 10.854223,0.52280908 13.567044,1.5698683 15.460358,3.913948 15.933706,6.8116272 c 0.08839,0.5410365 0.08839,1.8342111 0,2.3752486 -0.425321,2.6036642 -1.999647,4.7742802 -4.313141,5.9467712 -1.076171,0.54541 -2.1741215,0.822523 -3.4054337,0.859503 -0.2789464,0.0083 -0.5780042,0.0092 -0.6645742,0.0018 z"
       id="path1075" />
    <path
       d="M 7.9999174,3 A 0.62498969,0.62500003 0 0 1 8.6249071,3.6250004 V 7.375 h 3.7499389 a 0.62498976,0.6250001 0 0 1 0,1.2500002 H 8.6249071 V 12.375 a 0.62498972,0.62500006 0 0 1 -1.2499794,0 V 8.6250002 h -3.749938 a 0.62498976,0.6250001 0 0 1 0,-1.2500002 h 3.749938 V 3.6250004 A 0.62498969,0.62500003 0 0 1 7.9999174,3 Z"
       id="path4"
       style="fill:#ffffff;fill-opacity:1;stroke-width:1.24999" />
  </g>
</svg>
